<svg width="32" height="32" viewBox="0 0 32 32" xmlns="http://www.w3.org/2000/svg">
  <defs>
    <linearGradient id="betanoGradient" x1="0%" y1="0%" x2="100%" y2="100%">
      <stop offset="0%" style="stop-color:#FF6B35;stop-opacity:1" />
      <stop offset="100%" style="stop-color:#F7931E;stop-opacity:1" />
    </linearGradient>
  </defs>
  
  <!-- Background Circle -->
  <circle cx="16" cy="16" r="15" fill="url(#betanoGradient)" stroke="#000" stroke-width="2"/>
  
  <!-- Letter B -->
  <path d="M8 6 L8 26 L18 26 C21 26 23 24 23 21 C23 19 22 18 20 17.5 C22 17 23 15 23 13 C23 10 21 6 18 6 Z M12 10 L17 10 C18.5 10 19 11 19 12 C19 13 18.5 14 17 14 L12 14 Z M12 18 L18 18 C19.5 18 20 19 20 20 C20 21 19.5 22 18 22 L12 22 Z" fill="#FFFFFF"/>
</svg>